OpenSim_Sub06_CSBaseline_GRF.mot
version=1
nRows=64
nColumns=19
inDegrees=no
endheader
time	lFx	lFy	lFz	lCOPx	lCOPy	lCOPz	rFx	rFy	rFz	rCOPx	rCOPy	rCOPz	lMx	lMy	lMz	rMx	rMy	rMz
42.46000000	5.97414458	607.90394193	73.77404256	0.52891636	0	-0.61304505	-0.01572236	1.63968014	0.30270205	-0.00000279	0	0.00000134	0	-8.31687387	0	0	-0.00000495	-0.00000000
42.47000000	8.78754856	613.05654673	73.25859291	0.52181821	0	-0.61309926	-0.02753870	1.59595926	0.29243198	-0.00001394	0	0.00000665	0	-8.18193385	0	0	-0.00000275	0.00000000
42.48000000	11.86590716	617.58816622	72.75284867	0.51467316	0	-0.61319587	-0.05755536	1.62010012	0.29788722	-0.00003158	0	0.00001495	0	-8.02541956	0	0	0.00000907	0.00000000
42.49000000	15.01680150	621.44868102	72.33308577	0.50778783	0	-0.61333195	-0.05842696	1.65159783	0.37225631	-0.00004369	0	0.00002047	0	-7.81623492	0	0	0.00003760	0.00000000
42.50000000	18.24384581	624.67720709	71.97870992	0.50115272	0	-0.61352171	-0.02631893	1.68361622	0.40392487	-0.00001396	0	0.00000600	0	-7.56856065	0	0	0.00008045	-0.00000000
42.51000000	21.66249659	627.47813713	71.67984011	0.49461848	0	-0.61375511	-0.00654313	1.66208233	0.32141200	0.00012290	0	-0.00005922	0	-7.29967606	0	0	0.00010356	0.00000000
42.52000000	25.32772111	630.16230490	71.50993891	0.48809308	0	-0.61400814	0.02300958	1.58691546	0.23590521	0.00042881	0	-0.00020387	0	-7.04134146	0	0	0.00001180	0.00000000
42.53000000	29.13378790	632.97088786	71.59004119	0.48158373	0	-0.61426413	0.08925693	1.59678123	0.18838618	0.00084565	0	-0.00039902	0	-6.84711541	0	0	-0.00035656	0.00000000
42.54000000	33.04127388	635.86497030	72.00075297	0.47510641	0	-0.61446916	0.19649432	1.67005677	0.23919798	0.00096072	0	-0.00044752	0	-6.75733757	0	0	-0.00113539	0.00000000
42.55000000	37.14309354	638.41226759	72.61228189	0.46859635	0	-0.61459329	0.36447747	1.64996509	0.35369604	-0.00026789	0	0.00014414	0	-6.73214174	0	0	-0.00212096	0.00000000
42.56000000	41.43210194	640.22494999	73.27520941	0.46205948	0	-0.61467816	0.47044179	1.38503271	0.34973906	-0.00446239	0	0.00213787	0	-6.76272864	0	0	-0.00218245	0.00000000
42.57000000	45.74114341	641.30747166	73.92348864	0.45558442	0	-0.61477749	0.10999668	0.74639005	0.19833827	-0.01263402	0	0.00599286	0	-6.84216896	0	0	0.00136661	0.00000000
42.58000000	49.86189400	641.93485922	74.54236823	0.44906468	0	-0.61486503	-1.35571874	0.00014796	-0.07929814	-0.02172488	0	0.01022480	0	-6.91569849	0	0	0.01245586	-0.00000000
42.59000000	53.81206129	642.21894116	75.12312823	0.44250837	0	-0.61490652	-4.42387291	0.23216931	-0.36629460	-0.01854674	0	0.00855206	0	-6.99645973	0	0	0.03291875	0.00000000
42.60000000	57.76169315	641.86271816	75.48099376	0.43606488	0	-0.61492301	-8.30952836	3.99572669	-0.26368692	0.02564623	0	-0.01261166	0	-7.01075968	0	0	0.05346279	-0.00000000
42.61000000	61.76213170	640.31758139	75.53593591	0.42982104	0	-0.61490473	-10.94002874	17.46613611	0.95202741	0.14877534	0	-0.07100573	0	-6.92192118	0	0	0.03871136	0.00000000
42.62000000	65.60540351	636.80707841	75.28957508	0.42385043	0	-0.61482116	-10.36797734	51.64291186	4.14824170	0.35783976	0	-0.16937628	0	-6.77661402	0	0	-0.08430110	0.00000000
42.63000000	69.02636422	630.20620302	74.61388873	0.41816858	0	-0.61465705	-8.05937779	116.77091546	8.62411736	0.56002772	0	-0.26248598	0	-6.61558823	0	0	-0.37059739	0
42.64000000	71.88073319	618.95565856	73.15586279	0.41274574	0	-0.61441150	-12.45717754	210.00759725	9.23299186	0.67280737	0	-0.31143724	0	-6.36570001	0	0	-0.68844166	0.00000000
42.65000000	73.97471225	601.42448934	70.49286106	0.40746358	0	-0.61405763	-27.86625535	312.44411905	1.61363850	0.71105738	0	-0.32485611	0	-6.02406821	0	0	-0.25236123	0
42.66000000	74.90677905	576.65127066	66.21786406	0.40228036	0	-0.61353914	-45.93188391	399.42393253	-8.65784853	0.71437636	0	-0.32151193	0	-5.54393143	0	0	0.32102784	0.00000000
42.67000000	74.26150706	544.22087849	60.02556554	0.39718598	0	-0.61267228	-57.78196218	450.49338210	-17.19964313	0.70871393	0	-0.31400610	0	-4.87691532	0	0	0.64975699	-0.00000000
42.68000000	72.06414240	504.41595368	52.06897474	0.39251719	0	-0.61132046	-62.99930134	461.61818093	-23.80579259	0.70302810	0	-0.30737189	0	-4.08957604	0	0	0.70823119	-0.00000000
42.69000000	68.70046073	458.03332853	42.90779424	0.38875444	0	-0.60964973	-64.48248971	448.15468720	-31.27428215	0.69865331	0	-0.30216509	0	-3.24477753	0	0	0.57363329	0
42.70000000	64.22128223	406.41720816	33.52753347	0.38615469	0	-0.60817702	-64.17067650	431.85213572	-42.52095351	0.69563394	0	-0.29782057	0	-2.46618310	0	0	0.50005148	0
42.71000000	58.57439131	351.35675752	24.92736108	0.38467231	0	-0.60759326	-63.08244447	426.77888090	-56.89646346	0.69385578	0	-0.29392403	0	-1.92710119	0	0	0.39055695	0
42.72000000	52.03358057	294.63238253	17.70298348	0.38368367	0	-0.60856574	-61.63955388	435.95409335	-71.63019651	0.69257592	0	-0.29044460	0	-1.77550230	0	0	0.10516203	-0.00000000
42.73000000	44.94008546	238.06723341	11.97818728	0.38156566	0	-0.61089165	-60.15073061	456.42042674	-83.29806676	0.69091403	0	-0.28756340	0	-2.05553995	0	0	-0.37978095	0
42.74000000	37.30595360	184.34261366	7.67876621	0.37622549	0	-0.61172718	-58.82913536	484.29069161	-90.66410753	0.68834551	0	-0.28551230	0	-2.59303336	0	0	-0.78616239	0
42.75000000	29.11887128	136.59051212	4.75851624	0.36737664	0	-0.60350189	-57.58653355	516.74710793	-93.46749774	0.68459004	0	-0.28433608	0	-3.25639073	0	0	-0.90548120	0
42.76000000	20.79294820	97.07081628	2.82188099	0.35805974	0	-0.57278373	-56.06429311	551.28707592	-92.14803149	0.68032577	0	-0.28389748	0	-3.68352290	0	0	-0.69102749	0
42.77000000	13.16608340	66.35119124	1.37226717	0.34815104	0	-0.50465966	-54.03251795	585.14157148	-88.39114455	0.67601358	0	-0.28381694	0	-3.52797118	0	0	-0.35594990	0
42.78000000	7.05281725	43.62909624	0.24321408	0.32940842	0	-0.40155967	-51.49343683	615.76073155	-84.68281334	0.67157957	0	-0.28369883	0	-2.90192140	0	0	0.03936528	0.00000000
42.79000000	2.85957176	27.29911473	-0.67451169	0.28934680	0	-0.28834970	-48.76380977	641.40378384	-82.89416521	0.66699600	0	-0.28334513	0	-2.13116535	0	0	0.43053431	0
42.80000000	0.67196207	15.67214163	-1.47243326	0.22585613	0	-0.18474270	-46.17449209	661.42880839	-83.28708690	0.66222607	0	-0.28268597	0	-1.48190254	0	0	0.67256947	0
42.81000000	0.73880476	7.10977921	-2.25797567	0.14425979	0	-0.09880253	-43.92674389	675.89505471	-85.16337788	0.65742347	0	-0.28177603	0	-0.89681147	0	0	0.76282161	0
42.82000000	2.60282468	0.82627476	-3.07505127	0.06281925	0	-0.03482396	-42.03580627	685.08676594	-87.72153183	0.65282137	0	-0.28071533	0	-0.37019144	0	0	0.76293388	0
42.83000000	4.40560315	-2.65546762	-3.61438037	0.01264375	0	-0.00204372	-40.28085700	689.38362008	-90.24527913	0.64845752	0	-0.27959152	0	-0.06219798	0	0	0.62862052	0
42.84000000	5.34283662	-3.89493332	-3.86470365	-0.00636723	0	0.00753518	-38.44518169	689.67738774	-92.31342607	0.64425569	0	-0.27851429	0	0.04745305	0	0	0.37668600	-0.00000000
42.85000000	5.62239569	-3.91114460	-4.00935314	-0.00847079	0	0.00661750	-36.37652130	687.30715524	-93.82156958	0.64010914	0	-0.27755612	0	0.05468271	0	0	0.07538652	0
42.86000000	5.57738327	-3.48689169	-4.00190772	-0.00515410	0	0.00335107	-34.07267186	683.17346382	-94.71789187	0.63567284	0	-0.27671593	0	0.03159746	0	0	-0.24252645	0
42.87000000	5.45290077	-3.09990454	-4.02356282	-0.00192382	0	0.00095809	-31.64978285	677.60226256	-95.00049948	0.63074128	0	-0.27596877	0	0.01106827	0	0	-0.47605401	0
42.88000000	5.36119046	-2.91099552	-4.05373852	-0.00019268	0	-0.00011087	-29.23244589	670.51471999	-94.74468452	0.62547557	0	-0.27529629	0	0.00059573	0	0	-0.53637078	0
42.89000000	5.30986194	-2.82484843	-4.08035007	0.00035191	0	-0.00034210	-26.74597531	661.79387599	-93.97037432	0.61998520	0	-0.27465945	0	-0.00243830	0	0	-0.50067079	0
42.90000000	5.25872475	-2.74569440	-4.10700012	0.00033467	0	-0.00024671	-24.15272277	651.89482616	-92.86199997	0.61459413	0	-0.27402147	0	-0.00212391	0	0	-0.40824395	0.00000000
42.91000000	5.19223793	-2.71235250	-4.14318054	0.00017714	0	-0.00010877	-21.56274305	641.47442413	-91.64715461	0.60929935	0	-0.27340878	0	-0.00107013	0	0	-0.24491585	0
42.92000000	5.13847813	-2.68745159	-4.21273284	0.00005462	0	-0.00002267	-19.09524885	631.03594379	-90.45379154	0.60380222	0	-0.27286881	0	-0.00030315	0	0	-0.07164214	0.00000000
42.93000000	5.10782366	-2.64474639	-4.22651757	-0.00000258	0	0.00001034	-16.75229711	621.02915406	-89.27102752	0.59810950	0	-0.27243147	0	0.00003696	0	0	0.05022856	0
42.94000000	5.11329574	-2.62831064	-4.23358888	-0.00001619	0	0.00001409	-14.40408906	611.96808768	-88.10942755	0.59238798	0	-0.27211454	0	0.00010767	0	0	0.13881962	0
42.95000000	5.13295389	-2.70116934	-4.27093360	-0.00001177	0	0.00000816	-12.08805044	604.25800350	-87.00953166	0.58677623	0	-0.27189518	0	0.00007337	0	0	0.18830763	0
42.96000000	5.13796507	-2.84145787	-4.28189172	-0.00000445	0	0.00000225	-9.79861749	598.01904545	-86.03435123	0.58132039	0	-0.27170809	0	0.00002730	0	0	0.19270760	-0.00000000
42.97000000	5.14169796	-3.02922438	-4.29435075	-0.00000047	0	-0.00000038	-7.41160414	593.24193394	-85.33872131	0.57598397	0	-0.27153174	0	0.00000618	0	0	0.17651692	0
42.98000000	5.15009834	-3.19951299	-4.33042921	-0.00000206	0	0.00000130	-4.74902440	589.69821129	-84.93007687	0.57035761	0	-0.27135183	0	0.00002174	0	0	0.15733677	-0.00000000
42.99000000	5.14921519	-3.24455176	-4.35005773	-0.00001035	0	0.00000805	-1.70939532	587.09725307	-84.81313226	0.56427276	0	-0.27116880	0	0.00007588	0	0	0.15401158	0
43.00000000	5.12626019	-3.24891992	-4.38955982	-0.00002394	0	0.00001891	1.58805545	585.23059399	-85.02919154	0.55775046	0	-0.27102352	0	0.00014813	0	0	0.16936613	0
43.01000000	5.08790936	-3.25502446	-4.44144242	-0.00003249	0	0.00002602	4.97721591	584.01076781	-85.48165707	0.55111432	0	-0.27094175	0	0.00015545	0	0	0.20154668	0
43.02000000	5.06340211	-3.27365238	-4.48888475	-0.00000741	0	0.00000700	8.46060118	583.49949483	-85.98924492	0.54473042	0	-0.27094688	0	-0.00009379	0	0	0.24074257	0.00000000
43.03000000	5.04222623	-3.25732517	-4.50712528	0.00010113	0	-0.00007759	12.22773535	583.84860327	-86.45507639	0.53847120	0	-0.27105036	0	-0.00087986	0	0	0.26352159	-0.00000000
43.04000000	4.98684009	-3.12580250	-4.47597904	0.00033759	0	-0.00026392	16.41054249	585.48114549	-86.89490236	0.53218373	0	-0.27124533	0	-0.00233654	0	0	0.32912921	0.00000000
43.05000000	4.91369466	-2.88639381	-4.39634605	0.00064913	0	-0.00051305	20.97080825	588.90935019	-87.23045091	0.52564290	0	-0.27148030	0	-0.00381059	0	0	0.43876473	0.00000000
43.06000000	4.86770276	-2.58980549	-4.30461048	0.00070544	0	-0.00056854	25.80488943	594.43922534	-87.42387364	0.51885555	0	-0.27173254	0	-0.00279576	0	0	0.62496227	0.00000000
43.07000000	4.88328407	-2.38324997	-4.23950598	-0.00030362	0	0.00020637	30.81102013	601.71359366	-87.40849728	0.51189544	0	-0.27199507	0	0.00589774	0	0	0.93460893	0
43.08000000	4.98694430	-2.49349495	-4.20611931	-0.00360369	0	0.00278709	35.98699696	609.96642663	-87.14116494	0.50476171	0	-0.27225400	0	0.02864168	0	0	1.33361892	0
43.09000000	5.15140765	-3.22321969	-4.21420747	-0.00987191	0	0.00774280	41.24858861	618.60691890	-86.81964613	0.49774649	0	-0.27252783	0	0.06524747	0	0	1.75068102	0
